solid ascii
  facet normal -7.071068e-001 -7.071068e-001 0.000000e+000
    outer loop
      vertex   -9.745419e+001 5.000000e+000 5.112896e+001
      vertex   -9.745419e+001 5.000000e+000 -1.349843e+002
      vertex   -9.245419e+001 0.000000e+000 5.401571e+001
    endloop
  endfacet
  facet normal -7.071068e-001 -7.071068e-001 0.000000e+000
    outer loop
      vertex   -9.245419e+001 0.000000e+000 5.401571e+001
      vertex   -9.745419e+001 5.000000e+000 -1.349843e+002
      vertex   -9.245419e+001 0.000000e+000 -1.399843e+002
    endloop
  endfacet
  facet normal -7.071068e-001 0.000000e+000 -7.071068e-001
    outer loop
      vertex   -9.745419e+001 2.800000e+001 -1.349843e+002
      vertex   -9.245419e+001 2.800000e+001 -1.399843e+002
      vertex   -9.745419e+001 5.000000e+000 -1.349843e+002
    endloop
  endfacet
  facet normal -7.071068e-001 0.000000e+000 -7.071068e-001
    outer loop
      vertex   -9.745419e+001 5.000000e+000 -1.349843e+002
      vertex   -9.245419e+001 2.800000e+001 -1.399843e+002
      vertex   -9.245419e+001 0.000000e+000 -1.399843e+002
    endloop
  endfacet
  facet normal 0.000000e+000 1.000000e+000 0.000000e+000
    outer loop
      vertex   -9.745419e+001 2.800000e+001 -1.349843e+002
      vertex   -9.745419e+001 2.800000e+001 3.207640e+001
      vertex   -9.245419e+001 2.800000e+001 -1.399843e+002
    endloop
  endfacet
  facet normal 0.000000e+000 1.000000e+000 0.000000e+000
    outer loop
      vertex   -9.245419e+001 2.800000e+001 -1.399843e+002
      vertex   -9.745419e+001 2.800000e+001 3.207640e+001
      vertex   -8.745419e+001 2.800000e+001 3.207640e+001
    endloop
  endfacet
  facet normal 0.000000e+000 1.000000e+000 0.000000e+000
    outer loop
      vertex   -8.745419e+001 2.800000e+001 -1.399843e+002
      vertex   -9.245419e+001 2.800000e+001 -1.399843e+002
      vertex   -8.745419e+001 2.800000e+001 3.207640e+001
    endloop
  endfacet
  facet normal -1.000000e+000 0.000000e+000 0.000000e+000
    outer loop
      vertex   -9.745419e+001 5.000000e+000 -1.349843e+002
      vertex   -9.745419e+001 2.300000e+001 4.073665e+001
      vertex   -9.745419e+001 2.800000e+001 -1.349843e+002
    endloop
  endfacet
  facet normal -1.000000e+000 0.000000e+000 0.000000e+000
    outer loop
      vertex   -9.745419e+001 5.000000e+000 -1.349843e+002
      vertex   -9.745419e+001 5.000000e+000 5.112896e+001
      vertex   -9.745419e+001 2.300000e+001 4.073665e+001
    endloop
  endfacet
  facet normal -1.000000e+000 0.000000e+000 0.000000e+000
    outer loop
      vertex   -9.745419e+001 2.300000e+001 4.073665e+001
      vertex   -9.745419e+001 2.373576e+001 4.026792e+001
      vertex   -9.745419e+001 2.800000e+001 -1.349843e+002
    endloop
  endfacet
  facet normal -1.000000e+000 0.000000e+000 0.000000e+000
    outer loop
      vertex   -9.745419e+001 2.800000e+001 -1.349843e+002
      vertex   -9.745419e+001 2.373576e+001 4.026792e+001
      vertex   -9.745419e+001 2.800000e+001 3.207640e+001
    endloop
  endfacet
  facet normal -1.000000e+000 0.000000e+000 0.000000e+000
    outer loop
      vertex   -9.745419e+001 2.800000e+001 3.207640e+001
      vertex   -9.745419e+001 2.373576e+001 4.026792e+001
      vertex   -9.745419e+001 2.442788e+001 3.973684e+001
    endloop
  endfacet
  facet normal -1.000000e+000 0.000000e+000 0.000000e+000
    outer loop
      vertex   -9.745419e+001 2.507107e+001 3.914746e+001
      vertex   -9.745419e+001 2.800000e+001 3.207640e+001
      vertex   -9.745419e+001 2.442788e+001 3.973684e+001
    endloop
  endfacet
  facet normal -1.000000e+000 0.000000e+000 0.000000e+000
    outer loop
      vertex   -9.745419e+001 2.507107e+001 3.914746e+001
      vertex   -9.745419e+001 2.566044e+001 3.850427e+001
      vertex   -9.745419e+001 2.800000e+001 3.207640e+001
    endloop
  endfacet
  facet normal -1.000000e+000 0.000000e+000 0.000000e+000
    outer loop
      vertex   -9.745419e+001 2.800000e+001 3.207640e+001
      vertex   -9.745419e+001 2.566044e+001 3.850427e+001
      vertex   -9.745419e+001 2.619152e+001 3.781216e+001
    endloop
  endfacet
  facet normal -1.000000e+000 0.000000e+000 0.000000e+000
    outer loop
      vertex   -9.745419e+001 2.666025e+001 3.707640e+001
      vertex   -9.745419e+001 2.800000e+001 3.207640e+001
      vertex   -9.745419e+001 2.619152e+001 3.781216e+001
    endloop
  endfacet
  facet normal -1.000000e+000 0.000000e+000 0.000000e+000
    outer loop
      vertex   -9.745419e+001 2.666025e+001 3.707640e+001
      vertex   -9.745419e+001 2.706308e+001 3.630258e+001
      vertex   -9.745419e+001 2.800000e+001 3.207640e+001
    endloop
  endfacet
  facet normal -1.000000e+000 0.000000e+000 0.000000e+000
    outer loop
      vertex   -9.745419e+001 2.800000e+001 3.207640e+001
      vertex   -9.745419e+001 2.706308e+001 3.630258e+001
      vertex   -9.745419e+001 2.739693e+001 3.549660e+001
    endloop
  endfacet
  facet normal -1.000000e+000 0.000000e+000 0.000000e+000
    outer loop
      vertex   -9.745419e+001 2.765926e+001 3.466459e+001
      vertex   -9.745419e+001 2.800000e+001 3.207640e+001
      vertex   -9.745419e+001 2.739693e+001 3.549660e+001
    endloop
  endfacet
  facet normal -1.000000e+000 0.000000e+000 0.000000e+000
    outer loop
      vertex   -9.745419e+001 2.765926e+001 3.466459e+001
      vertex   -9.745419e+001 2.784808e+001 3.381288e+001
      vertex   -9.745419e+001 2.800000e+001 3.207640e+001
    endloop
  endfacet
  facet normal -1.000000e+000 0.000000e+000 0.000000e+000
    outer loop
      vertex   -9.745419e+001 2.800000e+001 3.207640e+001
      vertex   -9.745419e+001 2.784808e+001 3.381288e+001
      vertex   -9.745419e+001 2.796195e+001 3.294795e+001
    endloop
  endfacet
  facet normal 0.000000e+000 9.990482e-001 4.361939e-002
    outer loop
      vertex   -9.745419e+001 2.800000e+001 3.207640e+001
      vertex   -9.745419e+001 2.796195e+001 3.294795e+001
      vertex   -8.745419e+001 2.800000e+001 3.207640e+001
    endloop
  endfacet
  facet normal 1.033806e-015 9.990482e-001 4.361939e-002
    outer loop
      vertex   -8.745419e+001 2.800000e+001 3.207640e+001
      vertex   -9.745419e+001 2.796195e+001 3.294795e+001
      vertex   -8.745419e+001 2.796195e+001 3.294795e+001
    endloop
  endfacet
  facet normal 9.639515e-016 9.914449e-001 1.305262e-001
    outer loop
      vertex   -8.745419e+001 2.796195e+001 3.294795e+001
      vertex   -9.745419e+001 2.796195e+001 3.294795e+001
      vertex   -9.745419e+001 2.784808e+001 3.381288e+001
    endloop
  endfacet
  facet normal 8.867605e-016 9.762960e-001 2.164396e-001
    outer loop
      vertex   -8.745419e+001 2.784808e+001 3.381288e+001
      vertex   -9.745419e+001 2.784808e+001 3.381288e+001
      vertex   -9.745419e+001 2.765926e+001 3.466459e+001
    endloop
  endfacet
  facet normal 1.230149e-015 9.537170e-001 3.007058e-001
    outer loop
      vertex   -8.745419e+001 2.765926e+001 3.466459e+001
      vertex   -9.745419e+001 2.765926e+001 3.466459e+001
      vertex   -9.745419e+001 2.739693e+001 3.549660e+001
    endloop
  endfacet
  facet normal 1.040999e-015 9.238795e-001 3.826834e-001
    outer loop
      vertex   -8.745419e+001 2.739693e+001 3.549660e+001
      vertex   -9.745419e+001 2.739693e+001 3.549660e+001
      vertex   -9.745419e+001 2.706308e+001 3.630258e+001
    endloop
  endfacet
  facet normal 1.260518e-015 8.870108e-001 4.617486e-001
    outer loop
      vertex   -8.745419e+001 2.706308e+001 3.630258e+001
      vertex   -9.745419e+001 2.706308e+001 3.630258e+001
      vertex   -9.745419e+001 2.666025e+001 3.707640e+001
    endloop
  endfacet
  facet normal 1.198531e-015 8.433914e-001 5.372996e-001
    outer loop
      vertex   -8.745419e+001 2.666025e+001 3.707640e+001
      vertex   -9.745419e+001 2.666025e+001 3.707640e+001
      vertex   -9.745419e+001 2.619152e+001 3.781216e+001
    endloop
  endfacet
  facet normal 8.455672e-016 7.933533e-001 6.087614e-001
    outer loop
      vertex   -8.745419e+001 2.619152e+001 3.781216e+001
      vertex   -9.745419e+001 2.619152e+001 3.781216e+001
      vertex   -9.745419e+001 2.566044e+001 3.850427e+001
    endloop
  endfacet
  facet normal 3.057649e-016 7.372773e-001 6.755902e-001
    outer loop
      vertex   -8.745419e+001 2.566044e+001 3.850427e+001
      vertex   -9.745419e+001 2.566044e+001 3.850427e+001
      vertex   -9.745419e+001 2.507107e+001 3.914746e+001
    endloop
  endfacet
  facet normal 6.762222e-016 6.755902e-001 7.372773e-001
    outer loop
      vertex   -8.745419e+001 2.507107e+001 3.914746e+001
      vertex   -9.745419e+001 2.507107e+001 3.914746e+001
      vertex   -9.745419e+001 2.442788e+001 3.973684e+001
    endloop
  endfacet
  facet normal 1.513929e-015 6.087614e-001 7.933533e-001
    outer loop
      vertex   -8.745419e+001 2.442788e+001 3.973684e+001
      vertex   -9.745419e+001 2.442788e+001 3.973684e+001
      vertex   -9.745419e+001 2.373576e+001 4.026792e+001
    endloop
  endfacet
  facet normal 1.336210e-015 5.372996e-001 8.433914e-001
    outer loop
      vertex   -8.745419e+001 2.373576e+001 4.026792e+001
      vertex   -9.745419e+001 2.373576e+001 4.026792e+001
      vertex   -9.745419e+001 2.300000e+001 4.073665e+001
    endloop
  endfacet
  facet normal 0.000000e+000 5.372996e-001 8.433914e-001
    outer loop
      vertex   -8.745419e+001 2.300000e+001 4.073665e+001
      vertex   -8.745419e+001 2.373576e+001 4.026792e+001
      vertex   -9.745419e+001 2.300000e+001 4.073665e+001
    endloop
  endfacet
  facet normal 9.639515e-016 9.914449e-001 1.305262e-001
    outer loop
      vertex   -8.745419e+001 2.796195e+001 3.294795e+001
      vertex   -9.745419e+001 2.784808e+001 3.381288e+001
      vertex   -8.745419e+001 2.784808e+001 3.381288e+001
    endloop
  endfacet
  facet normal 1.194340e-015 9.762960e-001 2.164396e-001
    outer loop
      vertex   -8.745419e+001 2.784808e+001 3.381288e+001
      vertex   -9.745419e+001 2.765926e+001 3.466459e+001
      vertex   -8.745419e+001 2.765926e+001 3.466459e+001
    endloop
  endfacet
  facet normal 1.141649e-015 9.537170e-001 3.007058e-001
    outer loop
      vertex   -8.745419e+001 2.765926e+001 3.466459e+001
      vertex   -9.745419e+001 2.739693e+001 3.549660e+001
      vertex   -8.745419e+001 2.739693e+001 3.549660e+001
    endloop
  endfacet
  facet normal 1.312912e-015 9.238795e-001 3.826834e-001
    outer loop
      vertex   -8.745419e+001 2.739693e+001 3.549660e+001
      vertex   -9.745419e+001 2.706308e+001 3.630258e+001
      vertex   -8.745419e+001 2.706308e+001 3.630258e+001
    endloop
  endfacet
  facet normal 1.260518e-015 8.870108e-001 4.617486e-001
    outer loop
      vertex   -8.745419e+001 2.706308e+001 3.630258e+001
      vertex   -9.745419e+001 2.666025e+001 3.707640e+001
      vertex   -8.745419e+001 2.666025e+001 3.707640e+001
    endloop
  endfacet
  facet normal 8.988985e-016 8.433914e-001 5.372996e-001
    outer loop
      vertex   -8.745419e+001 2.666025e+001 3.707640e+001
      vertex   -9.745419e+001 2.619152e+001 3.781216e+001
      vertex   -8.745419e+001 2.619152e+001 3.781216e+001
    endloop
  endfacet
  facet normal 4.130162e-016 7.933533e-001 6.087614e-001
    outer loop
      vertex   -8.745419e+001 2.619152e+001 3.781216e+001
      vertex   -9.745419e+001 2.566044e+001 3.850427e+001
      vertex   -8.745419e+001 2.566044e+001 3.850427e+001
    endloop
  endfacet
  facet normal 8.296319e-016 7.372773e-001 6.755902e-001
    outer loop
      vertex   -8.745419e+001 2.566044e+001 3.850427e+001
      vertex   -9.745419e+001 2.507107e+001 3.914746e+001
      vertex   -8.745419e+001 2.507107e+001 3.914746e+001
    endloop
  endfacet
  facet normal 1.680125e-015 6.755902e-001 7.372773e-001
    outer loop
      vertex   -8.745419e+001 2.507107e+001 3.914746e+001
      vertex   -9.745419e+001 2.442788e+001 3.973684e+001
      vertex   -8.745419e+001 2.442788e+001 3.973684e+001
    endloop
  endfacet
  facet normal 1.513929e-015 6.087614e-001 7.933533e-001
    outer loop
      vertex   -8.745419e+001 2.442788e+001 3.973684e+001
      vertex   -9.745419e+001 2.373576e+001 4.026792e+001
      vertex   -8.745419e+001 2.373576e+001 4.026792e+001
    endloop
  endfacet
  facet normal 0.000000e+000 5.000000e-001 8.660254e-001
    outer loop
      vertex   -9.745419e+001 2.300000e+001 4.073665e+001
      vertex   -9.745419e+001 5.000000e+000 5.112896e+001
      vertex   -8.745419e+001 2.300000e+001 4.073665e+001
    endloop
  endfacet
  facet normal 1.538370e-015 5.000000e-001 8.660254e-001
    outer loop
      vertex   -8.745419e+001 2.300000e+001 4.073665e+001
      vertex   -9.745419e+001 5.000000e+000 5.112896e+001
      vertex   -9.245419e+001 0.000000e+000 5.401571e+001
    endloop
  endfacet
  facet normal 0.000000e+000 5.000000e-001 8.660254e-001
    outer loop
      vertex   -8.745419e+001 0.000000e+000 5.401571e+001
      vertex   -8.745419e+001 2.300000e+001 4.073665e+001
      vertex   -9.245419e+001 0.000000e+000 5.401571e+001
    endloop
  endfacet
  facet normal 1.000000e+000 0.000000e+000 0.000000e+000
    outer loop
      vertex   -8.745419e+001 2.796195e+001 3.294795e+001
      vertex   -8.745419e+001 2.784808e+001 3.381288e+001
      vertex   -8.745419e+001 2.800000e+001 3.207640e+001
    endloop
  endfacet
  facet normal 1.000000e+000 0.000000e+000 0.000000e+000
    outer loop
      vertex   -8.745419e+001 2.800000e+001 3.207640e+001
      vertex   -8.745419e+001 2.784808e+001 3.381288e+001
      vertex   -8.745419e+001 2.765926e+001 3.466459e+001
    endloop
  endfacet
  facet normal 1.000000e+000 0.000000e+000 0.000000e+000
    outer loop
      vertex   -8.745419e+001 2.739693e+001 3.549660e+001
      vertex   -8.745419e+001 2.800000e+001 3.207640e+001
      vertex   -8.745419e+001 2.765926e+001 3.466459e+001
    endloop
  endfacet
  facet normal 1.000000e+000 0.000000e+000 0.000000e+000
    outer loop
      vertex   -8.745419e+001 2.739693e+001 3.549660e+001
      vertex   -8.745419e+001 2.706308e+001 3.630258e+001
      vertex   -8.745419e+001 2.800000e+001 3.207640e+001
    endloop
  endfacet
  facet normal 1.000000e+000 0.000000e+000 0.000000e+000
    outer loop
      vertex   -8.745419e+001 2.800000e+001 3.207640e+001
      vertex   -8.745419e+001 2.706308e+001 3.630258e+001
      vertex   -8.745419e+001 2.666025e+001 3.707640e+001
    endloop
  endfacet
  facet normal 1.000000e+000 0.000000e+000 0.000000e+000
    outer loop
      vertex   -8.745419e+001 2.619152e+001 3.781216e+001
      vertex   -8.745419e+001 2.800000e+001 3.207640e+001
      vertex   -8.745419e+001 2.666025e+001 3.707640e+001
    endloop
  endfacet
  facet normal 1.000000e+000 0.000000e+000 0.000000e+000
    outer loop
      vertex   -8.745419e+001 2.619152e+001 3.781216e+001
      vertex   -8.745419e+001 2.566044e+001 3.850427e+001
      vertex   -8.745419e+001 2.800000e+001 3.207640e+001
    endloop
  endfacet
  facet normal 1.000000e+000 0.000000e+000 0.000000e+000
    outer loop
      vertex   -8.745419e+001 2.800000e+001 3.207640e+001
      vertex   -8.745419e+001 2.566044e+001 3.850427e+001
      vertex   -8.745419e+001 2.507107e+001 3.914746e+001
    endloop
  endfacet
  facet normal 1.000000e+000 0.000000e+000 0.000000e+000
    outer loop
      vertex   -8.745419e+001 2.442788e+001 3.973684e+001
      vertex   -8.745419e+001 2.800000e+001 3.207640e+001
      vertex   -8.745419e+001 2.507107e+001 3.914746e+001
    endloop
  endfacet
  facet normal 1.000000e+000 0.000000e+000 0.000000e+000
    outer loop
      vertex   -8.745419e+001 2.442788e+001 3.973684e+001
      vertex   -8.745419e+001 2.373576e+001 4.026792e+001
      vertex   -8.745419e+001 2.800000e+001 3.207640e+001
    endloop
  endfacet
  facet normal 1.000000e+000 0.000000e+000 0.000000e+000
    outer loop
      vertex   -8.745419e+001 2.800000e+001 3.207640e+001
      vertex   -8.745419e+001 2.373576e+001 4.026792e+001
      vertex   -8.745419e+001 2.800000e+001 -1.399843e+002
    endloop
  endfacet
  facet normal 1.000000e+000 0.000000e+000 0.000000e+000
    outer loop
      vertex   -8.745419e+001 2.800000e+001 -1.399843e+002
      vertex   -8.745419e+001 2.373576e+001 4.026792e+001
      vertex   -8.745419e+001 2.300000e+001 4.073665e+001
    endloop
  endfacet
  facet normal 1.000000e+000 0.000000e+000 0.000000e+000
    outer loop
      vertex   -8.745419e+001 0.000000e+000 -1.399843e+002
      vertex   -8.745419e+001 2.300000e+001 4.073665e+001
      vertex   -8.745419e+001 0.000000e+000 5.401571e+001
    endloop
  endfacet
  facet normal 1.000000e+000 0.000000e+000 0.000000e+000
    outer loop
      vertex   -8.745419e+001 0.000000e+000 -1.399843e+002
      vertex   -8.745419e+001 2.800000e+001 -1.399843e+002
      vertex   -8.745419e+001 2.300000e+001 4.073665e+001
    endloop
  endfacet
  facet normal 0.000000e+000 0.000000e+000 -1.000000e+000
    outer loop
      vertex   -9.245419e+001 2.800000e+001 -1.399843e+002
      vertex   -8.745419e+001 2.800000e+001 -1.399843e+002
      vertex   -9.245419e+001 0.000000e+000 -1.399843e+002
    endloop
  endfacet
  facet normal 0.000000e+000 0.000000e+000 -1.000000e+000
    outer loop
      vertex   -9.245419e+001 0.000000e+000 -1.399843e+002
      vertex   -8.745419e+001 2.800000e+001 -1.399843e+002
      vertex   -8.745419e+001 0.000000e+000 -1.399843e+002
    endloop
  endfacet
  facet normal 0.000000e+000 -1.000000e+000 0.000000e+000
    outer loop
      vertex   -9.245419e+001 0.000000e+000 5.401571e+001
      vertex   -9.245419e+001 0.000000e+000 -1.399843e+002
      vertex   -8.745419e+001 0.000000e+000 5.401571e+001
    endloop
  endfacet
  facet normal 0.000000e+000 -1.000000e+000 0.000000e+000
    outer loop
      vertex   -8.745419e+001 0.000000e+000 5.401571e+001
      vertex   -9.245419e+001 0.000000e+000 -1.399843e+002
      vertex   -8.745419e+001 0.000000e+000 -1.399843e+002
    endloop
  endfacet
endsolid
